# xmcd CD Database Entry
#
# Track frame offsets:
# 150
# 23732
# 55022
# 76842
# 92855
# 112957
# 136345
# 157310
# 182972
# 210810
# 238387
# 266662
# 297220
# 328622
#
# Disc length: 4743 seconds
#
# Revision: 3
# Processed by: cddbd v1.4PL0 Copyright (c) Steve Scherf et al.
# Submitted via: tcd 2.0b
#
DISCID=c312850e
DTITLE=George Throrogood - Let's Work Together
DYEAR=1900
DGENRE=
TTITLE0=No Particular Place to Go
TTITLE1=Ride on Josephine
TTITLE2=Bad Boy
TTITLE3=Cocaine Blues
TTITLE4=If you don't start drinkin' (Im gonna leave)
TTITLE5=I'm ready
TTITLE6=I'll change my style
TTITLE7=Get a Haircut (and get a real job)
TTITLE8=Gear jammer
TTITLE9=Move it on over
TTITLE10=You talk too much
TTITLE11=Let's work togther
TTITLE12=St. Louis Blues
TTITLE13=Johnny B. Goode
EXTD=
EXTT0=
EXTT1=
EXTT2=
EXTT3=
EXTT4=
EXTT5=
EXTT6=
EXTT7=
EXTT8=
EXTT9=
EXTT10=
EXTT11=
EXTT12=
EXTT13=
PLAYORDER=
